<?xml version="1.0" standalone="no"?>
<!DOCTYPE svg PUBLIC "-//W3C//DTD SVG 20010904//EN"
 "http://www.w3.org/TR/2001/REC-SVG-20010904/DTD/svg10.dtd">
<svg version="1.0" xmlns="http://www.w3.org/2000/svg"
 width="512.000000pt" height="512.000000pt" viewBox="0 0 512.000000 512.000000"
 preserveAspectRatio="xMidYMid meet">

<g transform="translate(0.000000,512.000000) scale(0.100000,-0.100000)"
fill="#000000" stroke="none">
<path d="M2185 3816 c-39 -17 -81 -67 -90 -105 -4 -20 25 -185 85 -488 50
-252 93 -466 96 -475 5 -17 27 -18 284 -18 257 0 279 1 284 18 3 9 46 223 96
474 79 396 90 463 81 496 -12 42 -51 85 -94 101 -44 17 -703 14 -742 -3z"/>
<path d="M84 3610 c-26 -13 -49 -35 -63 -60 -21 -38 -22 -49 -19 -232 3 -181
4 -195 25 -224 47 -65 34 -64 635 -64 l544 0 247 295 c136 162 247 297 247
300 0 3 -354 5 -787 5 -770 0 -789 0 -829 -20z"/>
<path d="M3420 3625 c0 -3 111 -138 247 -300 l247 -295 546 0 c614 0 592 -3
637 76 21 36 23 51 23 223 0 178 -1 186 -25 226 -46 79 -3 75 -890 75 -432 0
-785 -2 -785 -5z"/>
<path d="M1355 2742 c-269 -321 -574 -685 -677 -808 -204 -244 -221 -272 -199
-344 10 -34 34 -59 137 -148 133 -114 191 -152 233 -152 71 0 94 24 618 650
278 333 512 613 521 622 13 16 8 54 -58 385 -40 203 -76 371 -79 374 -3 4
-226 -257 -496 -579z"/>
<path d="M3265 3318 c-2 -7 -36 -176 -76 -376 -65 -327 -70 -364 -57 -380 9
-9 241 -287 518 -617 276 -330 511 -608 522 -617 34 -30 93 -43 136 -30 40 12
289 214 318 257 24 37 27 94 7 137 -25 52 -1362 1642 -1368 1626z"/>
</g>
</svg>
